<svg xmlns="http://www.w3.org/2000/svg" viewBox="0 0 24 24" fill="currentColor">
  <g transform="matrix(0.0349343 0 0 0.0349343 -55.5414 -28.6416)">
    <path d="M1878.62 1496.58c-159.12-26.17-280.67-164.49-280.67-330.98 0-185.13 150.3-335.43 335.43-335.43s335.44 150.3 335.44 335.43c0 166.26-121.22 304.43-280.02 330.87v-29.68c142.58-26.11 250.79-151.11 250.8-301.19 0-169-137.21-306.21-306.21-306.21s-306.2 137.21-306.2 306.21c0 150.31 108.54 275.47 251.44 301.33v29.73Zm0-95.9c-106.85-24.83-186.56-120.72-186.56-235.08 0-133.19 108.13-241.33 241.32-241.33s241.33 108.14 241.33 241.33c0 113.13-79.39 208.86-185.91 233.93v-30.16c90.22-24.39 156.68-106.88 156.68-204.77 0-117.06-97.12-214.22-214.18-214.22s-214.18 97.12-214.18 214.22c0 97.13 66.78 179.78 157.33 203.95v32.08Zm0-96.67c-55.07-21.83-94.06-75.6-94.06-138.41 0-82.14 66.68-148.83 148.82-148.83s148.83 66.69 148.83 148.83c0 62.56-38.68 116.16-93.41 138.15v-32.16c38.13-20 64.18-59.97 64.18-106 0-66 53.59-119.59 119.6-119.59s119.59 53.59 119.59 119.59c0 46.28-26.34 86.45-64.83 106.33v32.08c-55.07 21.83-94.06 75.6-94.06 138.41 0 82.14 66.68 148.83 148.82 148.83s148.83-66.69 148.83-148.83c0-62.6-38.68-116.2-93.41-138.19v-32.08c38.13-20 64.18-59.97 64.18-106 0-66-53.59-119.59-119.6-119.59s-119.59 53.59-119.59 119.59c0 46.28 26.34 86.45 64.83 106.33v32.08c-55.07 21.83-94.06 75.6-94.06 138.41 0 82.14 66.68 148.83 148.82 148.83s148.83-66.69 148.83-148.83c0-62.56-38.68-116.16-93.41-138.15v-32.16c38.13-20 64.18-59.97 64.18-106 0-66-53.59-119.59-119.6-119.59s-119.59 53.59-119.59 119.59c0 46.28 26.34 86.45 64.83 106.33v32.08Z" />
  </g>
</svg>
