<?xml version="1.0" encoding="UTF-8"?>
<svg id="Layer_1" data-name="Layer 1" xmlns="http://www.w3.org/2000/svg" viewBox="0 0 229.82 88">
  <defs>
    <style>
      .cls-1 {
        fill: #fe0032;
      }
    </style>
  </defs>
  <path class="cls-1" d="M22.86,14.59v44.54c0,5.67,2.79,8.54,8.22,8.54h11.57c5.51,0,8.3-2.87,8.3-8.54v-13.09c0-5.67-2.79-8.46-8.3-8.46h-16.6v-5.83h17.72c8.7,0,13.01,4.47,13.01,13.33v15.01c0,8.86-4.31,13.33-13.01,13.33h-13.73c-8.7,0-13.01-4.47-13.01-13.33V14.59h5.83Z"/>
  <path class="cls-1" d="M70.11,14.59v6.26h-5.83v-6.26h5.83ZM70.11,32.15v41.27h-5.83v-41.27h5.83Z"/>
  <path class="cls-1" d="M92.94,14.59v17.16h9.02v5.19h-9.02v36.48h-5.83v-36.48h-9.82v-5.19h9.82V14.59h5.83Z"/>
  <path class="cls-1" d="M114.46,31.75l16.84,35.68,16.6-35.68h6.07l-19.56,41.67h-6.31l-20.04-41.67h6.39Z"/>
  <path class="cls-1" d="M165.63,14.59v6.26h-5.83v-6.26h5.83ZM165.63,31.75v41.67h-5.83V31.75h5.83Z"/>
  <path class="cls-1" d="M212.79,14.59v45.5c0,8.86-4.31,13.33-13.01,13.33h-13.73c-8.7,0-13.01-4.47-13.01-13.33v-15.01c0-8.86,4.31-13.33,13.01-13.33h17.72v5.83h-16.6c-5.51,0-8.3,2.79-8.3,8.46v13.09c0,5.67,2.79,8.54,8.3,8.54h11.49c5.51,0,8.3-2.87,8.3-8.54V14.59h5.83Z"/>
</svg>