<svg xmlns="http://www.w3.org/2000/svg" viewBox="0 0 24 24" fill="currentColor">
  <path d="M12 0C18.623 0 24 5.377 24 12c0 6.623-5.377 12-12 12S0 18.623 0 12 5.377 0 12 0Zm2.557 16H9.442c.546 2.46 1.441 4.114 2.558 5.744 1.194-1.741 2.041-3.41 2.557-5.744ZM7.4 16H2.833c1.236 2.825 3.704 4.972 6.755 5.716-.048-1.733-.783-3.658-1.188-5.716Zm13.767 0H16.6c-.391 1.988-1.095 3.887-2.175 5.694 3.012-.763 5.517-2.895 6.742-5.694ZM7.162 10H2.2a7.996 7.996 0 0 0 0 4h4.915a22.266 22.266 0 0 1 .047-4Zm7.661 0H9.176a22.238 22.238 0 0 0-.053 4h5.753a22.238 22.238 0 0 0-.053-4Zm6.638 0h-4.963a22.266 22.266 0 0 1 .048 4H21.8a7.99 7.99 0 0 0-.342-4ZM9.644 2.271A11.996 11.996 0 0 0 2.833 8h4.653c.435-2.042 1.178-3.985 2.158-5.729ZM12 2.223c-1.089 1.77-1.91 3.453-2.463 5.777h4.927C13.93 5.754 13.127 4.052 12 2.223Zm2.368.069C15.38 4.104 16.1 6.052 16.513 8h4.654a11.995 11.995 0 0 0-6.799-5.708Z"/>
</svg>
